# xmcd
#
# Track frame offsets:
#	150
#	16296
#	33400
#	52024
#	70497
#	92523
#	110358
#	125967
#	141439
#	158526
#	179194
#
# Disc length: 2612 seconds
#
# Revision: 0
# Processed by: cddbd v1.5.2PL0 Copyright (c) Steve Scherf et al.
# Submitted via: EasyCDDAExtractor 8.2.3.1
#
DISCID=a00a320b
DTITLE=Various Artist - C'mon!
DYEAR=2008
DGENRE=Country
TTITLE0=Keith Anderson - C'mon
TTITLE1=Keith Anderson - Break My Heart
TTITLE2=Keith Anderson - Somebody Needs A Hug
TTITLE3=Keith Anderson - She Could've Been Mine
TTITLE4=Keith Anderson - Sunday Morning In America
TTITLE5=Keith Anderson - I Still Miss You
TTITLE6=Keith Anderson feat Foster and Lloyd - Crazy Over You
TTITLE7=Keith Anderson - I Ain't Hurtin' Nobody But Me
TTITLE8=Keith Anderson - Adaliene
TTITLE9=Keith Anderson - Lost In This Moment
TTITLE10=Keith Anderson - Closest I've Ever Been
EXTD=
EXTT0=
EXTT1=
EXTT2=
EXTT3=
EXTT4=
EXTT5=
EXTT6=
EXTT7=
EXTT8=
EXTT9=
EXTT10=
PLAYORDER=
